<?xml version="1.0" encoding="UTF-8" standalone="no"?>
<svg
   xmlns:dc="http://purl.org/dc/elements/1.1/"
   xmlns:cc="http://creativecommons.org/ns#"
   xmlns:rdf="http://www.w3.org/1999/02/22-rdf-syntax-ns#"
   xmlns:svg="http://www.w3.org/2000/svg"
   xmlns="http://www.w3.org/2000/svg"
   xmlns:sodipodi="http://sodipodi.sourceforge.net/DTD/sodipodi-0.dtd"
   xmlns:inkscape="http://www.inkscape.org/namespaces/inkscape"
   viewBox="0 0 24 24"
   version="1.1"
   id="svg3761"
   sodipodi:docname="database_small.svg"
   inkscape:version="0.92.2 5c3e80d, 2017-08-06"
   width="24"
   height="24">
  <metadata
     id="metadata3767">
    <rdf:RDF>
      <cc:Work
         rdf:about="">
        <dc:format>image/svg+xml</dc:format>
        <dc:type
           rdf:resource="http://purl.org/dc/dcmitype/StillImage" />
        <dc:title></dc:title>
      </cc:Work>
    </rdf:RDF>
  </metadata>
  <defs
     id="defs3765" />
  <sodipodi:namedview
     pagecolor="#ffffff"
     bordercolor="#666666"
     borderopacity="1"
     objecttolerance="10"
     gridtolerance="10"
     guidetolerance="10"
     inkscape:pageopacity="0"
     inkscape:pageshadow="2"
     inkscape:window-width="1440"
     inkscape:window-height="878"
     id="namedview3763"
     showgrid="false"
     inkscape:zoom="1"
     inkscape:cx="131.96528"
     inkscape:cy="345.51793"
     inkscape:window-x="1145"
     inkscape:window-y="217"
     inkscape:window-maximized="0"
     inkscape:current-layer="svg3761" />
  <path
     d="M 24,3.36869 V 5.51777 C 24,7.41168 18.625018,8.95633 12,8.95633 5.3749821,8.95633 0,7.41168 0,5.51777 V 3.36869 C 0,1.47479 5.2953636,0 11.920382,0 18.545399,0 24,1.47479 24,3.36869 Z m 0,4.83546 v 4.83546 c 0,1.8939 -5.374982,3.43856 -12,3.43856 -6.6250179,0 -12,-1.54466 -12,-3.43856 V 8.20415 c 2.578125,1.5581 7.2968571,2.28344 12,2.28344 4.703143,0 9.421821,-0.72534 12,-2.28344 z m 0,7.52183 v 4.83546 C 24,22.45534 18.625018,24 12,24 5.3749821,24 0,22.45534 0,20.56144 v -4.83546 c 2.578125,1.5581 7.2968571,2.28344 12,2.28344 4.703143,0 9.421821,-0.72534 12,-2.28344 z"
     id="path3759"
     inkscape:connector-curvature="0"
     sodipodi:nodetypes="ssssssscssscsccssscsc"
     style="stroke-width:0.05018437" />
</svg>
